<svg width="347" height="67" viewBox="0 0 347 67" fill="none" xmlns="http://www.w3.org/2000/svg">
<path d="M14.6782 39.7608C8.54884 39.7608 3.65611 37.5922 0 33.2551L5.69923 27.8247C8.38754 30.8356 11.4164 32.341 14.7857 32.341C16.3629 32.341 17.6353 31.9288 18.6031 31.1044C19.6068 30.2441 20.1086 29.0971 20.1086 27.6634C20.1086 26.1221 19.4634 24.9392 18.173 24.1148C16.8826 23.2904 15.0725 22.8782 12.7426 22.8782H9.30157L8.01118 17.6091L16.9901 8.57632H2.20442V1.47917H27.6359V7.71606L18.1192 16.8026C24.8579 17.9496 28.2273 21.4982 28.2273 27.4483C28.2273 31.0686 26.9907 34.0257 24.5174 36.3197C22.08 38.6138 18.8003 39.7608 14.6782 39.7608Z" fill="white"/>
<path d="M48.2872 39.6532C44.0576 39.6532 40.5807 38.6496 37.8565 36.6423C35.1324 34.6351 33.7703 31.9826 33.7703 28.6849C33.7703 24.4911 35.7955 21.4623 39.8459 19.5984C36.6557 17.6628 35.0607 14.8849 35.0607 11.2646C35.0607 8.32541 36.2794 5.87008 38.7168 3.89865C41.19 1.92722 44.3801 0.941507 48.2872 0.941507C52.23 0.941507 55.4202 1.92722 57.8576 3.89865C60.295 5.87008 61.5137 8.36126 61.5137 11.3722C61.5137 14.9207 59.9186 17.6628 56.7285 19.5984C58.7716 20.6737 60.295 21.8924 61.2986 23.2545C62.3022 24.6166 62.8041 26.3909 62.8041 28.5774C62.8041 31.9826 61.442 34.6888 58.7178 36.6961C56.0295 38.6675 52.5526 39.6532 48.2872 39.6532ZM44.3622 15.5659C45.3659 16.4262 46.6742 16.8563 48.2872 16.8563C49.9002 16.8563 51.1905 16.4262 52.1583 15.5659C53.162 14.7057 53.6638 13.5766 53.6638 12.1787C53.6638 10.96 53.162 9.92048 52.1583 9.06022C51.1905 8.19996 49.9002 7.76983 48.2872 7.76983C46.6383 7.76983 45.33 8.19996 44.3622 9.06022C43.3944 9.92048 42.9105 10.9779 42.9105 12.2324C42.9105 13.5587 43.3944 14.6698 44.3622 15.5659ZM48.2872 32.8249C50.2944 32.8249 51.8716 32.3769 53.0186 31.4808C54.2015 30.5847 54.7929 29.4376 54.7929 28.0397C54.7929 26.606 54.1835 25.4769 52.9648 24.6524C51.782 23.828 50.2228 23.4158 48.2872 23.4158C46.3516 23.4158 44.7744 23.8459 43.5557 24.7062C42.3729 25.5306 41.7814 26.6776 41.7814 28.1473C41.7814 29.4735 42.3729 30.5847 43.5557 31.4808C44.7386 32.3769 46.3157 32.8249 48.2872 32.8249Z" fill="white"/>
<path d="M75.8638 14.1026V5.50002H84.574V14.1026H75.8638ZM75.8638 34.3188V25.7161H84.574V34.3188H75.8638Z" fill="white"/>
<path d="M173.538 14.1026V5.50002H182.248V14.1026H173.538ZM173.538 34.3188V25.7161H182.248V34.3188H173.538Z" fill="white"/>
<path d="M258.629 14.1026V5.50002H267.339V14.1026H258.629ZM258.629 34.3188V25.7161H267.339V34.3188H258.629Z" fill="white"/>
<path d="M22.84 66.4625V64.0108H23.4078C23.6429 63.466 23.8121 62.8896 23.9153 62.2817C24.0186 61.6737 24.0702 60.8766 24.0702 59.8901V59.1847H28.4489V64.0108H29.1715L28.9995 66.4625H27.8897V65.2066H24.1218L24.0358 66.4625H22.84ZM27.1241 60.3805H25.3434V60.9913C25.3434 62.1268 25.1627 63.1333 24.8014 64.0108H27.1241V60.3805Z" fill="white"/>
<path d="M30.0966 65.2066V59.1847H31.4214V61.5676H33.8645V59.1847H35.1893V65.2066H33.8645V62.7892H31.4214V65.2066H30.0966Z" fill="white"/>
<path d="M36.6325 65.2066V59.1847H41.1747V60.3633H37.9487V61.5849H40.7876V62.7634H37.9487V64.028H41.2177V65.2066H36.6325Z" fill="white"/>
<path d="M47.583 59.1847V65.2066H46.2754V61.258L43.643 65.2066H42.3956V59.1847H43.7032V63.1333L46.3528 59.1847H47.583ZM45.9829 58.3847C45.7306 58.6141 45.4065 58.7288 45.0108 58.7288C44.6151 58.7288 44.2882 58.6141 44.0301 58.3847C43.7778 58.1553 43.6229 57.8341 43.5656 57.4212L44.3312 57.2836C44.4516 57.6678 44.6782 57.8599 45.0108 57.8599C45.3434 57.8599 45.57 57.6678 45.6904 57.2836L46.4561 57.4212C46.3987 57.8341 46.241 58.1553 45.9829 58.3847Z" fill="white"/>
<path d="M98.068 39.1156V32.5561L110.596 22.2867C113.069 20.2436 114.771 18.6127 115.703 17.394C116.635 16.1395 117.101 14.7595 117.101 13.254C117.101 11.7127 116.635 10.5119 115.703 9.65166C114.771 8.79139 113.553 8.36126 112.047 8.36126C110.649 8.36126 109.377 8.75555 108.23 9.54412C107.119 10.2969 105.828 11.5872 104.359 13.4153L98.5519 8.73763C100.523 6.04931 102.549 4.07788 104.628 2.82334C106.742 1.56879 109.395 0.941516 112.585 0.941516C116.492 0.941516 119.628 2.01684 121.994 4.16749C124.36 6.2823 125.543 9.11399 125.543 12.6626C125.543 14.7057 125.148 16.5517 124.36 18.2005C123.571 19.8135 122.55 21.2473 121.295 22.5018C120.041 23.7205 118.159 25.2976 115.65 27.2332L109.52 31.9647H125.919V39.1156H98.068Z" fill="white"/>
<path d="M145.654 39.7608C139.524 39.7608 134.632 37.5922 130.976 33.2551L136.675 27.8247C139.363 30.8356 142.392 32.341 145.761 32.341C147.338 32.341 148.611 31.9288 149.579 31.1044C150.582 30.2441 151.084 29.0971 151.084 27.6634C151.084 26.1221 150.439 24.9392 149.149 24.1148C147.858 23.2904 146.048 22.8782 143.718 22.8782H140.277L138.987 17.6091L147.966 8.57633H133.18V1.47918H158.611V7.71607L149.095 16.8026C155.833 17.9496 159.203 21.4982 159.203 27.4483C159.203 31.0686 157.966 34.0257 155.493 36.3197C153.056 38.6138 149.776 39.7608 145.654 39.7608Z" fill="white"/>
<path d="M119.677 65.2066V62.9613C119.069 63.2595 118.539 63.4086 118.086 63.4086C117.46 63.4086 116.967 63.2394 116.606 62.9011C116.245 62.5627 116.064 62.058 116.064 61.387V59.1847H117.389V60.9999C117.389 61.7799 117.713 62.1698 118.361 62.1698C118.906 62.1698 119.344 62.0408 119.677 61.7827V59.1847H121.002V65.2066H119.677Z" fill="white"/>
<path d="M121.927 65.2066L124.508 59.1417H125.729L128.31 65.2066H126.925L126.375 63.856H123.828L123.278 65.2066H121.927ZM124.301 62.686H125.901L125.101 60.7332L124.301 62.686Z" fill="white"/>
<path d="M132.061 65.3098C131.178 65.3098 130.441 65.0116 129.85 64.4151C129.265 63.8129 128.973 63.0731 128.973 62.1956C128.973 61.3239 129.268 60.587 129.859 59.9848C130.45 59.3826 131.201 59.0815 132.113 59.0815C132.635 59.0815 133.073 59.1675 133.429 59.3396C133.785 59.5059 134.123 59.7468 134.444 60.0622L133.653 60.9741C133.395 60.7389 133.151 60.5698 132.921 60.4665C132.698 60.3576 132.425 60.3031 132.104 60.3031C131.6 60.3031 131.181 60.4866 130.848 60.8536C130.521 61.215 130.358 61.6623 130.358 62.1956C130.358 62.7233 130.521 63.1706 130.848 63.5377C131.181 63.9047 131.6 64.0882 132.104 64.0882C132.425 64.0882 132.704 64.0309 132.939 63.9162C133.174 63.8015 133.423 63.6237 133.687 63.3828L134.53 64.2861C134.203 64.6359 133.848 64.894 133.463 65.0603C133.085 65.2266 132.618 65.3098 132.061 65.3098Z" fill="white"/>
<path d="M140.804 64.4065C140.196 65.0087 139.433 65.3098 138.516 65.3098C137.598 65.3098 136.835 65.0087 136.227 64.4065C135.625 63.8043 135.324 63.0674 135.324 62.1956C135.324 61.3297 135.628 60.5956 136.236 59.9934C136.85 59.3855 137.615 59.0815 138.533 59.0815C139.45 59.0815 140.21 59.3826 140.812 59.9848C141.42 60.587 141.724 61.3239 141.724 62.1956C141.724 63.0616 141.418 63.7986 140.804 64.4065ZM137.225 63.5377C137.569 63.9047 138.005 64.0882 138.533 64.0882C139.06 64.0882 139.493 63.9076 139.832 63.5463C140.17 63.1792 140.339 62.729 140.339 62.1956C140.339 61.668 140.167 61.2207 139.823 60.8536C139.479 60.4866 139.043 60.3031 138.516 60.3031C137.988 60.3031 137.555 60.4866 137.217 60.8536C136.878 61.215 136.709 61.6623 136.709 62.1956C136.709 62.7233 136.881 63.1706 137.225 63.5377Z" fill="white"/>
<path d="M142.9 65.2066V59.1847H145.695C146.389 59.1847 146.914 59.3625 147.27 59.7181C147.545 59.9934 147.683 60.3404 147.683 60.759C147.683 61.3268 147.419 61.7598 146.891 62.058C147.264 62.2014 147.545 62.3906 147.734 62.6258C147.923 62.8552 148.018 63.1649 148.018 63.5549C148.018 64.094 147.817 64.504 147.416 64.785C147.014 65.0661 146.464 65.2066 145.764 65.2066H142.9ZM144.19 61.6193H145.412C146.048 61.6193 146.366 61.4013 146.366 60.9655C146.366 60.7648 146.292 60.6128 146.143 60.5095C145.994 60.4006 145.779 60.3461 145.498 60.3461H144.19V61.6193ZM144.19 64.0452H145.764C146.389 64.0452 146.702 63.8215 146.702 63.3742C146.702 62.9383 146.375 62.7204 145.721 62.7204H144.19V64.0452Z" fill="white"/>
<path d="M201.845 39.1156V9.59789L195.285 11.2109L193.565 4.43632L204.372 1.21035H210.017V39.1156H201.845Z" fill="white"/>
<path d="M217.592 39.1156V32.5561L230.119 22.2867C232.592 20.2436 234.295 18.6127 235.227 17.394C236.159 16.1395 236.625 14.7595 236.625 13.254C236.625 11.7127 236.159 10.5119 235.227 9.65166C234.295 8.79139 233.076 8.36126 231.571 8.36126C230.173 8.36126 228.901 8.75555 227.754 9.54412C226.642 10.2969 225.352 11.5872 223.882 13.4153L218.076 8.73763C220.047 6.04931 222.072 4.07788 224.151 2.82334C226.266 1.56879 228.918 0.941516 232.109 0.941516C236.016 0.941516 239.152 2.01684 241.518 4.16749C243.883 6.2823 245.066 9.11399 245.066 12.6626C245.066 14.7057 244.672 16.5517 243.883 18.2005C243.095 19.8135 242.073 21.2473 240.819 22.5018C239.564 23.7205 237.682 25.2976 235.173 27.2332L229.044 31.9647H245.443V39.1156H217.592Z" fill="white"/>
<path d="M207.022 65.2066V59.1847H208.45L210.033 61.7311L211.616 59.1847H213.044V65.2066H211.728V61.2752L210.033 63.8474H209.999L208.321 61.301V65.2066H207.022Z" fill="white"/>
<path d="M219.678 59.1847V65.2066H218.371V61.258L215.738 65.2066H214.491V59.1847H215.799V63.1333L218.448 59.1847H219.678Z" fill="white"/>
<path d="M221.128 65.2066V59.1847H222.453V61.5677H224.896V59.1847H226.22V65.2066H224.896V62.7892H222.453V65.2066H221.128Z" fill="white"/>
<path d="M230.21 62.3677L231.664 59.1847H233.101L230.786 63.8387C230.528 64.3549 230.242 64.7277 229.926 64.9571C229.616 65.1865 229.247 65.3012 228.816 65.3012C228.363 65.3012 227.93 65.1836 227.517 64.9485L228.034 63.9764C228.252 64.1083 228.49 64.1742 228.748 64.1742C229.046 64.1742 229.298 64.0137 229.505 63.6925L227.096 59.1847H228.576L230.21 62.3677Z" fill="white"/>
<path d="M235.383 65.2066V60.4063H233.551V59.1847H238.541V60.4063H236.708V65.2066H235.383Z" fill="white"/>
<path d="M308.067 34.2229C304.949 37.9148 300.916 39.7608 295.97 39.7608C291.023 39.7608 287.009 37.9148 283.926 34.2229C280.844 30.5309 279.302 25.8891 279.302 20.2974C279.302 14.7415 280.861 10.1176 283.98 6.42568C287.098 2.69788 291.131 0.833984 296.077 0.833984C300.988 0.833984 304.985 2.67996 308.067 6.37191C311.186 10.0639 312.745 14.7057 312.745 20.2974C312.745 25.8532 311.186 30.4951 308.067 34.2229ZM290.055 28.9C291.597 31.1582 293.604 32.2873 296.077 32.2873C298.551 32.2873 300.522 31.1761 301.992 28.9538C303.497 26.6956 304.25 23.8101 304.25 20.2974C304.25 16.8563 303.479 14.0067 301.938 11.7485C300.397 9.45451 298.407 8.3075 295.97 8.3075C293.532 8.3075 291.561 9.43659 290.055 11.6948C288.55 13.9171 287.797 16.7846 287.797 20.2974C287.797 23.7743 288.55 26.6418 290.055 28.9Z" fill="white"/>
<path d="M332.072 39.7608C326.624 39.7608 321.928 37.879 317.985 34.1153L322.986 28.1473C325.997 30.8714 328.99 32.2335 331.965 32.2335C333.936 32.2335 335.477 31.7675 336.589 30.8356C337.7 29.9036 338.255 28.5953 338.255 26.9106C338.255 25.3335 337.646 24.0969 336.427 23.2008C335.209 22.2688 333.596 21.8028 331.588 21.8028C329.581 21.8028 327.484 22.2688 325.298 23.2008L320.512 20.0286L321.588 1.47918H344.707V8.73763H328.685L328.255 15.2433C329.975 14.8132 331.624 14.5982 333.201 14.5982C337.108 14.5982 340.28 15.6018 342.718 17.6091C345.155 19.6163 346.374 22.6631 346.374 26.7493C346.374 30.728 345.066 33.9003 342.449 36.266C339.868 38.5958 336.409 39.7608 332.072 39.7608Z" fill="white"/>
<path d="M297.695 65.3098C296.812 65.3098 296.075 65.0116 295.484 64.4151C294.899 63.8129 294.607 63.0731 294.607 62.1956C294.607 61.3239 294.902 60.5869 295.493 59.9848C296.084 59.3826 296.835 59.0815 297.747 59.0815C298.269 59.0815 298.708 59.1675 299.063 59.3396C299.419 59.5059 299.757 59.7468 300.078 60.0622L299.287 60.9741C299.029 60.7389 298.785 60.5697 298.556 60.4665C298.332 60.3575 298.06 60.3031 297.738 60.3031C297.234 60.3031 296.815 60.4866 296.482 60.8536C296.155 61.2149 295.992 61.6623 295.992 62.1956C295.992 62.7233 296.155 63.1706 296.482 63.5376C296.815 63.9047 297.234 64.0882 297.738 64.0882C298.06 64.0882 298.338 64.0309 298.573 63.9162C298.808 63.8015 299.057 63.6237 299.321 63.3828L300.164 64.2861C299.837 64.6359 299.482 64.894 299.098 65.0603C298.719 65.2266 298.252 65.3098 297.695 65.3098Z" fill="white"/>
<path d="M301.225 65.2065V59.1847H305.767V60.3633H302.541V61.5849H305.38V62.7634H302.541V64.028H305.81V65.2065H301.225Z" fill="white"/>
<path d="M306.988 65.2065V59.1847H308.313V61.8171L310.756 59.1847H312.356L309.904 61.7397L312.468 65.2065H310.876L309.01 62.643L308.313 63.3656V65.2065H306.988Z" fill="white"/>
<path d="M315.818 62.3677L317.272 59.1847H318.709L316.395 63.8387C316.137 64.3549 315.85 64.7277 315.534 64.9571C315.225 65.1865 314.855 65.3012 314.425 65.3012C313.971 65.3012 313.539 65.1836 313.126 64.9485L313.642 63.9764C313.86 64.1083 314.098 64.1742 314.356 64.1742C314.654 64.1742 314.906 64.0137 315.113 63.6925L312.704 59.1847H314.184L315.818 62.3677Z" fill="white"/>
<path d="M319.589 65.2065V59.1847H320.914V61.5676H323.357V59.1847H324.682V65.2065H323.357V62.7892H320.914V65.2065H319.589Z" fill="white"/>
<path d="M325.489 66.4625V64.0108H326.057C326.292 63.466 326.461 62.8896 326.564 62.2817C326.667 61.6737 326.719 60.8766 326.719 59.8901V59.1847H331.098V64.0108H331.82L331.648 66.4625H330.538V65.2065H326.771L326.685 66.4625H325.489ZM329.773 60.3805H327.992V60.9913C327.992 62.1268 327.811 63.1333 327.45 64.0108H329.773V60.3805Z" fill="white"/>
</svg>
